<svg xmlns="http://www.w3.org/2000/svg" width="4096" height="1300" viewBox="0 0 4096 1300" version="1.1"><path d="M 1159.500 36.431 L 1153.500 38.806 1141 43.846 L 1128.500 48.886 1113 55.325 L 1097.500 61.765 1092.500 63.997 L 1087.500 66.229 1063.500 76.182 L 1039.500 86.134 1007.500 99.189 L 975.500 112.244 964.604 116.685 L 953.708 121.126 944.814 125.593 L 935.919 130.061 936.492 130.987 L 937.064 131.913 944.282 135.790 L 951.500 139.668 971.199 150.257 L 990.899 160.846 1005.522 169.530 L 1020.145 178.214 1020.680 179.608 L 1021.215 181.002 1012.866 190.251 L 1004.517 199.500 998.871 205.500 L 993.224 211.500 984.862 221.347 L 976.500 231.193 966.674 242.847 L 956.848 254.500 952.116 259.500 L 947.384 264.500 943.073 270 L 938.761 275.500 931.446 284 L 924.132 292.500 916.316 301.802 L 908.500 311.105 903.695 317.302 L 898.890 323.500 893.195 329.922 L 887.500 336.345 882.126 343.422 L 876.751 350.500 873.025 354.500 L 869.299 358.500 860.986 369 L 852.673 379.500 852.061 380 L 851.448 380.500 848.106 385 L 844.763 389.500 839.016 395 L 833.269 400.500 810.860 427 L 788.452 453.500 786.172 456.453 L 783.892 459.407 777.196 466.505 L 770.500 473.604 763.178 482.552 L 755.856 491.500 749.661 498 L 743.466 504.500 736.989 512 L 730.511 519.500 725.506 524.953 L 720.500 530.406 711 540.399 L 701.500 550.392 684.973 567.446 L 668.447 584.500 660.473 592.942 L 652.500 601.385 646.899 606.942 L 641.299 612.500 624.899 627.983 L 608.500 643.465 597.475 653.983 L 586.450 664.500 570.616 678.500 L 554.782 692.500 549.077 697.500 L 543.372 702.500 532.436 711.684 L 521.500 720.867 511.500 729.200 L 501.500 737.533 491 746.054 L 480.500 754.574 468.500 763.629 L 456.500 772.684 448.500 778.237 L 440.500 783.790 433.500 787.377 L 426.500 790.964 416.500 793.055 L 406.500 795.146 393 797.050 L 379.500 798.954 369.622 800.497 L 359.743 802.041 359.036 802.478 L 358.329 802.915 350.415 804.518 L 342.500 806.120 339.500 807.011 L 336.500 807.901 330 809.556 L 323.500 811.210 314.942 814.037 L 306.384 816.863 296.442 821.119 L 286.500 825.375 280.959 828.613 L 275.419 831.850 267.598 837.462 L 259.777 843.073 252.888 849.240 L 246 855.408 246 856.016 L 246 856.624 255.250 859.508 L 264.500 862.392 265.763 863.329 L 267.025 864.266 263.263 867.561 L 259.500 870.857 257.074 871.491 L 254.649 872.126 245.574 876.555 L 236.500 880.985 226.500 888.540 L 216.500 896.094 209.390 902.931 L 202.279 909.768 199.435 913.634 L 196.590 917.500 190.295 924.153 L 184 930.806 184 932.042 L 184 933.278 189.750 932.771 L 195.500 932.265 201 933.132 L 206.500 933.999 213.500 933.995 L 220.500 933.991 218.500 935.576 L 216.500 937.162 207.032 942.767 L 197.565 948.373 189.143 956.436 L 180.721 964.500 175.540 971 L 170.358 977.500 164.314 986.500 L 158.269 995.500 153.256 1004 L 148.242 1012.500 138.695 1031.250 L 129.148 1050 130.824 1049.983 L 132.500 1049.965 141 1048.534 L 149.500 1047.104 165 1044.124 L 180.500 1041.145 195 1038.488 L 209.500 1035.831 219.500 1033.870 L 229.500 1031.908 233.500 1030.959 L 237.500 1030.009 253.500 1026.521 L 269.500 1023.032 273.500 1021.957 L 277.500 1020.881 285.500 1018.314 L 293.500 1015.747 302.241 1011.277 L 310.981 1006.807 315.817 1000.654 L 320.653 994.500 324.354 988.324 L 328.055 982.148 333.896 969.824 L 339.738 957.500 341.939 952.500 L 344.139 947.500 349.070 934.781 L 354 922.063 354.042 920.781 L 354.084 919.500 355.959 916 L 357.834 912.500 357.731 928.500 L 357.628 944.500 359.281 957.844 L 360.933 971.187 362.079 976.844 L 363.225 982.500 363.970 987 L 364.715 991.500 365.465 993.250 L 366.214 995 367.167 995 L 368.120 995 373.742 989.750 L 379.365 984.500 391.271 972.500 L 403.176 960.500 412.420 949.500 L 421.664 938.500 425.150 933.500 L 428.636 928.500 432.313 922.205 L 435.990 915.910 440.856 904.705 L 445.721 893.500 451.484 876.500 L 457.247 859.500 460.047 852.500 L 462.847 845.500 466.393 838.287 L 469.938 831.074 473.385 827.287 L 476.832 823.500 487.166 816.165 L 497.500 808.831 509.500 800.439 L 521.500 792.047 530.349 785.774 L 539.198 779.500 564.849 760.238 L 590.500 740.976 602 731.437 L 613.500 721.898 624 713.381 L 634.500 704.864 643.948 696.682 L 653.395 688.500 675.948 668.514 L 698.500 648.528 722.500 625.380 L 746.500 602.231 771.134 576.866 L 795.768 551.500 809.079 536.500 L 822.390 521.500 829.118 514.500 L 835.846 507.500 838.166 504.500 L 840.487 501.500 848.426 492 L 856.365 482.500 864.932 472.640 L 873.500 462.780 880.263 454.640 L 887.027 446.500 894.263 437.576 L 901.500 428.653 906.962 422.076 L 912.424 415.500 917.890 409 L 923.356 402.500 931.609 393 L 939.862 383.500 944.681 377.323 L 949.500 371.145 955.500 364.115 L 961.500 357.085 966 351.339 L 970.500 345.594 975.939 338.547 L 981.377 331.500 987.439 324.319 L 993.500 317.139 1001.847 307.114 L 1010.194 297.090 1014.347 291.656 L 1018.500 286.222 1028.500 273.973 L 1038.500 261.723 1044 254.564 L 1049.500 247.405 1054 241.837 L 1058.500 236.270 1062.500 230.640 L 1066.500 225.011 1067.100 225.005 L 1067.700 225 1072.681 230.750 L 1077.661 236.500 1080.629 240.621 L 1083.596 244.742 1093.548 256.541 L 1103.500 268.340 1110.500 276.325 L 1117.500 284.310 1122.826 290.655 L 1128.151 297 1129.476 297 L 1130.801 297 1131.846 292.250 L 1132.891 287.500 1133.921 281 L 1134.952 274.500 1137.975 253 L 1140.998 231.500 1143.065 217 L 1145.132 202.500 1147.027 189.500 L 1148.922 176.500 1150.022 168.500 L 1151.123 160.500 1153.989 141 L 1156.856 121.500 1160.493 94.500 L 1164.130 67.500 1166.567 52.500 L 1169.003 37.500 1169.002 35.750 L 1169 34 1167.250 34.028 L 1165.500 34.056 1159.500 36.431 M 428 236.617 L 424.500 237.038 410 239.094 L 395.500 241.150 376 245.036 L 356.500 248.922 344.675 251.995 L 332.849 255.067 314.595 261.480 L 296.340 267.893 285.420 272.536 L 274.500 277.179 261 284.249 L 247.500 291.319 234.500 298.786 L 221.500 306.253 209.500 313.758 L 197.500 321.264 183.500 330.859 L 169.500 340.454 151 354.436 L 132.500 368.418 113.500 383.764 L 94.500 399.110 87.379 405.104 L 80.258 411.099 72.129 419.427 L 64 427.756 64 429.764 L 64 431.771 65.494 434.636 L 66.988 437.500 66.994 441.691 L 67 445.882 68.023 446.514 L 69.046 447.146 75.773 443.435 L 82.500 439.725 89.500 434.028 L 96.500 428.332 110.590 417.748 L 124.680 407.163 130.995 403.082 L 137.310 399 137.997 399 L 138.685 399 142.247 406.750 L 145.809 414.500 149.463 423 L 153.117 431.500 155.043 436 L 156.970 440.500 161.580 452.500 L 166.190 464.500 170.476 476.500 L 174.762 488.500 182.319 511.500 L 189.876 534.500 194.362 549.500 L 198.848 564.500 202.984 580.500 L 207.119 596.500 211.188 612 L 215.257 627.500 216.677 634 L 218.097 640.500 223.079 665 L 228.061 689.500 229.972 701.500 L 231.883 713.500 234.141 729.500 L 236.398 745.500 236.501 767.500 L 236.604 789.500 236.802 795.750 L 237 802 240.250 801.976 L 243.500 801.951 248 800.917 L 252.500 799.884 255.210 797.293 L 257.920 794.702 259.152 789.101 L 260.384 783.500 260.312 771.500 L 260.240 759.500 258.063 736.500 L 255.886 713.500 253.004 695 L 250.122 676.500 246.479 658.500 L 242.836 640.500 236.894 615.500 L 230.953 590.500 225.378 570 L 219.802 549.500 211.948 524 L 204.093 498.500 200.517 487.544 L 196.940 476.588 191.612 462.544 L 186.284 448.500 178.031 426.500 L 169.779 404.500 166.790 396.500 L 163.802 388.500 162.815 387.294 L 161.828 386.088 162.417 385.134 L 163.006 384.181 176.753 376.207 L 190.500 368.232 201.500 362.225 L 212.500 356.218 227.500 349.230 L 242.500 342.243 251.267 338.619 L 260.033 334.996 271.767 330.931 L 283.500 326.866 299.500 322.547 L 315.500 318.227 327 315.659 L 338.500 313.090 347 311.582 L 355.500 310.074 370 307.788 L 384.500 305.502 420 305.575 L 455.500 305.649 472.500 307.908 L 489.500 310.167 503 312.630 L 516.500 315.093 531 318.598 L 545.500 322.103 567 328.644 L 588.500 335.185 597 338.458 L 605.500 341.731 616.500 346.469 L 627.500 351.207 650.500 362.514 L 673.500 373.821 678 376.784 L 682.500 379.746 697 388.491 L 711.500 397.236 720.294 403.368 L 729.088 409.500 742.406 420 L 755.723 430.500 766.580 439.213 L 777.436 447.926 780.132 444.713 L 782.828 441.500 806.294 414.500 L 829.759 387.500 827.630 385.139 L 825.500 382.778 813.713 373.139 L 801.926 363.500 791.213 355.175 L 780.500 346.850 767.500 338.367 L 754.500 329.884 745.500 324.303 L 736.500 318.723 723.619 311.301 L 710.737 303.879 690.119 293.551 L 669.500 283.222 657.500 278.181 L 645.500 273.141 633 268.473 L 620.500 263.805 609 260.026 L 597.500 256.247 581.500 252.171 L 565.500 248.096 548 244.585 L 530.500 241.074 515 238.932 L 499.500 236.789 465.500 236.492 L 431.500 236.195 428 236.617 M 892.890 461.757 L 890.279 463.500 865.093 492.314 L 839.907 521.128 845.812 527.814 L 851.717 534.500 859.481 544.882 L 867.244 555.265 875.480 567.382 L 883.715 579.500 889.677 589.500 L 895.640 599.500 903.245 614 L 910.851 628.500 915.031 638 L 919.210 647.500 923.175 658.500 L 927.140 669.500 931.506 683 L 935.871 696.500 939.441 712.094 L 943.012 727.688 945.669 744.094 L 948.325 760.500 948.372 796 L 948.418 831.500 946.184 850 L 943.949 868.500 942.360 878 L 940.771 887.500 937.816 901 L 934.861 914.500 932.359 923.500 L 929.857 932.500 924.517 948.500 L 919.177 964.500 913.417 978 L 907.657 991.500 900.839 1004.852 L 894.021 1018.204 888.389 1027.643 L 882.756 1037.082 880.628 1035.537 L 878.500 1033.991 862.532 1025.881 L 846.564 1017.770 830.532 1010.776 L 814.500 1003.782 802 999.005 L 789.500 994.228 768.500 987.169 L 747.500 980.110 735.393 976.591 L 723.286 973.071 709.393 969.637 L 695.500 966.202 675.500 962.147 L 655.500 958.093 644 956.100 L 632.500 954.107 617.500 952.066 L 602.500 950.026 583.500 948.485 L 564.500 946.944 552 945.943 L 539.500 944.942 514.500 944.924 L 489.500 944.905 478 945.957 L 466.500 947.009 454 948.053 L 441.500 949.097 435.500 950.091 L 429.500 951.085 423.083 954.187 L 416.665 957.290 409.333 964.505 L 402 971.719 402 972.981 L 402 974.242 416.750 973.570 L 431.500 972.898 442 971.742 L 452.500 970.587 502 970.543 L 551.500 970.500 568.500 971.812 L 585.500 973.124 606.500 975.552 L 627.500 977.980 636.754 979.495 L 646.007 981.010 665.254 985.026 L 684.500 989.043 706.467 994.597 L 728.435 1000.150 742.467 1004.507 L 756.500 1008.864 769.684 1013.355 L 782.867 1017.846 792.184 1021.545 L 801.500 1025.244 821.305 1034.142 L 841.109 1043.041 855.055 1050.027 L 869 1057.013 869 1057.945 L 869 1058.877 865.845 1064.688 L 862.689 1070.500 851.845 1087.642 L 841 1104.785 841 1107.693 L 841 1110.602 847.008 1117.686 L 853.016 1124.771 855.161 1125.332 L 857.306 1125.893 860.133 1124.431 L 862.960 1122.969 877.368 1108.235 L 891.776 1093.500 898.210 1086 L 904.643 1078.500 910.571 1070.721 L 916.500 1062.942 922.262 1055.221 L 928.025 1047.500 933.762 1039.599 L 939.500 1031.699 941.500 1028.522 L 943.500 1025.346 950.893 1012.923 L 958.286 1000.500 960.020 997.500 L 961.755 994.500 964.767 989 L 967.778 983.500 971.782 975.500 L 975.786 967.500 980.981 955.507 L 986.176 943.514 990.637 930.507 L 995.097 917.500 999.953 900.500 L 1004.808 883.500 1006.347 876.500 L 1007.885 869.500 1009.887 859.500 L 1011.889 849.500 1013.491 836.500 L 1015.093 823.500 1015.596 822.038 L 1016.100 820.577 1016.966 795.038 L 1017.832 769.500 1016.972 749 L 1016.111 728.500 1014.001 714.500 L 1011.890 700.500 1008.923 685.500 L 1005.956 670.500 1001.417 653.500 L 996.878 636.500 993.836 627.500 L 990.795 618.500 984.666 603 L 978.537 587.500 968.899 568 L 959.261 548.500 954.298 540 L 949.336 531.500 941.154 518.704 L 932.971 505.909 924.831 494.704 L 916.690 483.500 908.595 473.639 L 900.500 463.778 899.128 461.889 L 897.756 460 896.628 460.007 L 895.500 460.013 892.890 461.757 M 3849.564 461.070 L 3840.628 461.861 3831.564 463.480 L 3822.500 465.099 3813.500 467.606 L 3804.500 470.113 3799.154 472.078 L 3793.809 474.043 3785.899 477.990 L 3777.990 481.937 3770.745 486.663 L 3763.500 491.389 3753.630 500.945 L 3743.760 510.500 3739.762 516.370 L 3735.763 522.240 3730.946 532.370 L 3726.128 542.500 3722.966 553 L 3719.804 563.500 3719.281 582.500 L 3718.757 601.500 3721.399 612.415 L 3724.041 623.330 3728.020 631.280 L 3731.999 639.229 3736.503 646.004 L 3741.007 652.779 3749.817 661.140 L 3758.628 669.500 3767.064 675.135 L 3775.500 680.770 3787 686.308 L 3798.500 691.846 3812 696.387 L 3825.500 700.928 3835.500 703.369 L 3845.500 705.810 3861.500 709.527 L 3877.500 713.245 3891 716.673 L 3904.500 720.101 3913 722.643 L 3921.500 725.185 3929.665 729.156 L 3937.830 733.127 3942.969 738.561 L 3948.108 743.995 3950.487 749.247 L 3952.866 754.500 3954.019 760.983 L 3955.172 767.465 3954.491 772.920 L 3953.809 778.374 3951.491 783.615 L 3949.174 788.856 3944.859 793.537 L 3940.545 798.218 3933.105 802.573 L 3925.665 806.928 3920.083 808.078 L 3914.500 809.228 3911.500 810.828 L 3908.500 812.427 3882 812.457 L 3855.500 812.487 3852 811.257 L 3848.500 810.028 3839 808.651 L 3829.500 807.274 3817 803.533 L 3804.500 799.791 3794 795.731 L 3783.500 791.670 3774.553 787.226 L 3765.605 782.782 3759.053 778.693 L 3752.500 774.605 3748.164 771.112 L 3743.828 767.618 3742.524 768.559 L 3741.219 769.500 3726.758 798 L 3712.297 826.500 3709.148 831.794 L 3706 837.088 3706.041 838.794 L 3706.082 840.500 3712.791 844.669 L 3719.500 848.839 3737.500 857.692 L 3755.500 866.545 3766 870.705 L 3776.500 874.865 3788.431 878.470 L 3800.361 882.074 3815.431 885.054 L 3830.500 888.034 3842 889.555 L 3853.500 891.076 3875 891.663 L 3896.500 892.250 3912 890.068 L 3927.500 887.886 3939 885.317 L 3950.500 882.748 3961.852 878.835 L 3973.205 874.922 3980.352 871.334 L 3987.500 867.747 3994.023 863.540 L 4000.546 859.334 4009.859 850.471 L 4019.172 841.609 4025.375 833.856 L 4031.578 826.104 4035.246 818.686 L 4038.914 811.268 4041.400 803.884 L 4043.885 796.500 4045.658 788 L 4047.431 779.500 4047.465 760.500 L 4047.500 741.500 4044.797 731.182 L 4042.094 720.864 4038.824 713.682 L 4035.554 706.500 4032.113 700.500 L 4028.671 694.500 4018.086 683.963 L 4007.500 673.426 3997.500 666.779 L 3987.500 660.133 3979.350 656.111 L 3971.200 652.089 3954.395 646.510 L 3937.590 640.931 3919.045 636.423 L 3900.500 631.916 3891.500 629.843 L 3882.500 627.769 3875 625.801 L 3867.500 623.832 3858 620.872 L 3848.500 617.911 3837.273 612.389 L 3826.046 606.866 3821.732 602.674 L 3817.419 598.482 3814.710 593.045 L 3812 587.607 3812.010 579.554 L 3812.020 571.500 3814.378 566.435 L 3816.737 561.370 3821.988 556.201 L 3827.239 551.032 3833.370 548.147 L 3839.500 545.263 3849 542.885 L 3858.500 540.507 3878 540.606 L 3897.500 540.705 3914.526 543.774 L 3931.552 546.843 3940.026 548.983 L 3948.500 551.123 3954.672 553.005 L 3960.844 554.887 3972.172 559.508 L 3983.500 564.129 3992.867 569.114 L 4002.234 574.099 4002.480 573.799 L 4002.725 573.500 4009.299 558.500 L 4015.872 543.500 4024.041 524.141 L 4032.211 504.782 4030.855 503.428 L 4029.500 502.073 4016 495.197 L 4002.500 488.320 3993 484.550 L 3983.500 480.779 3970.500 476.459 L 3957.500 472.139 3943 468.620 L 3928.500 465.101 3917.500 463.542 L 3906.500 461.982 3892 461.006 L 3877.500 460.030 3868 460.154 L 3858.500 460.279 3849.564 461.070 M 1519.459 467.765 L 1518.418 468.500 1513.072 482.500 L 1507.726 496.500 1502.939 508 L 1498.153 519.500 1493.169 533 L 1488.184 546.500 1478.235 571.500 L 1468.287 596.500 1459.526 619 L 1450.766 641.500 1439.279 670.500 L 1427.792 699.500 1415.461 731.500 L 1403.131 763.500 1400.493 770 L 1397.856 776.500 1394.013 787 L 1390.170 797.500 1374.993 836.500 L 1359.815 875.500 1359.285 878.311 L 1358.755 881.122 1406.353 880.917 L 1453.950 880.712 1455.288 879.106 L 1456.625 877.500 1458.198 873.500 L 1459.772 869.500 1468.770 845 L 1477.768 820.500 1484.051 803.250 L 1490.335 786 1568.545 786 L 1646.755 786 1647.777 787.250 L 1648.800 788.500 1657.507 812.500 L 1666.215 836.500 1672.189 853.500 L 1678.162 870.500 1679.532 874.910 L 1680.901 879.321 1682.200 880.145 L 1683.500 880.969 1731.781 880.985 L 1780.063 881 1780.597 879.607 L 1781.132 878.214 1775.649 864.357 L 1770.167 850.500 1755.678 812.500 L 1741.190 774.500 1735.507 760 L 1729.825 745.500 1721.304 724 L 1712.784 702.500 1702.293 676 L 1691.803 649.500 1676.511 610 L 1661.219 570.500 1655.200 556 L 1649.181 541.500 1644.500 529 L 1639.819 516.500 1634.803 504 L 1629.786 491.500 1625.395 480.605 L 1621.004 469.709 1619.879 468.355 L 1618.755 467 1569.628 467.015 L 1520.500 467.031 1519.459 467.765 M 1830.395 468.168 L 1829.983 468.837 1829.649 601.668 L 1829.316 734.500 1829.677 807.765 L 1830.038 881.030 1874.153 880.979 L 1918.267 880.927 1920.134 879.929 L 1922 878.930 1922 810.965 L 1922 743 1950.099 743 L 1978.198 743 1981.085 746.090 L 1983.971 749.181 1991.618 761.340 L 1999.265 773.500 2003.820 780.500 L 2008.376 787.500 2018.303 803 L 2028.231 818.500 2036.366 831.384 L 2044.500 844.268 2055.530 862.384 L 2066.561 880.500 2119.280 880.759 L 2172 881.018 2172 879.131 L 2172 877.245 2170.322 875.872 L 2168.644 874.500 2162.143 864.500 L 2155.642 854.500 2149.004 845.500 L 2142.365 836.500 2129.878 819 L 2117.390 801.500 2113.020 795 L 2108.650 788.500 2100.493 777 L 2092.336 765.500 2082.706 751.862 L 2073.075 738.225 2072.787 737.074 L 2072.500 735.923 2084.125 731.145 L 2095.749 726.368 2105.125 721.056 L 2114.500 715.744 2120.880 710.753 L 2127.260 705.762 2133.834 698.794 L 2140.407 691.825 2144.528 686.518 L 2148.649 681.212 2153.951 670.410 L 2159.253 659.608 2161.143 653.054 L 2163.034 646.500 2165.230 636.500 L 2167.427 626.500 2167.458 606.500 L 2167.489 586.500 2165.300 576 L 2163.110 565.500 2160.112 556.335 L 2157.114 547.169 2153.940 540.835 L 2150.766 534.500 2146.159 527.500 L 2141.552 520.500 2132.649 511.270 L 2123.746 502.041 2114.623 496.137 L 2105.500 490.234 2096.106 485.494 L 2086.713 480.755 2076.606 477.311 L 2066.500 473.867 2052.500 471.283 L 2038.500 468.699 1977.500 468.348 L 1916.500 467.996 1873.654 467.748 L 1830.808 467.500 1830.395 468.168 M 2482.244 467.935 L 2477.988 468.636 2476.229 470.568 L 2474.470 472.500 2470.502 477.500 L 2466.534 482.500 2461.017 489 L 2455.500 495.500 2454.948 496 L 2454.396 496.500 2448.465 504 L 2442.533 511.500 2434.974 520 L 2427.415 528.500 2421.705 535.500 L 2415.996 542.500 2405.748 554.659 L 2395.500 566.817 2389 574.483 L 2382.500 582.149 2376.500 589.162 L 2370.500 596.174 2364.635 603.337 L 2358.770 610.500 2351.587 618.500 L 2344.404 626.500 2340.959 630.500 L 2337.515 634.500 2331.424 640.750 L 2325.333 647 2324.080 647 L 2322.826 647 2323.123 638.250 L 2323.420 629.500 2323.210 548.750 L 2323 468 2277.519 468 L 2232.038 468 2231.514 470.250 L 2230.990 472.500 2231.277 676.500 L 2231.563 880.500 2277.031 880.500 L 2322.500 880.500 2323.013 793.320 L 2323.526 706.140 2324.355 705.320 L 2325.184 704.500 2330.842 710.533 L 2336.500 716.566 2348.940 730.533 L 2361.380 744.500 2369.512 753 L 2377.643 761.500 2385.072 769.563 L 2392.500 777.627 2398.885 785.063 L 2405.271 792.500 2418.902 806.511 L 2432.533 820.521 2438.132 827.511 L 2443.732 834.500 2456.616 848.523 L 2469.500 862.546 2476.353 870.793 L 2483.206 879.040 2485.037 880.020 L 2486.869 881 2545.375 881 L 2603.882 881 2604.396 880.168 L 2604.910 879.336 2587.887 861.918 L 2570.863 844.500 2559.762 832.500 L 2548.662 820.500 2543.139 814.500 L 2537.615 808.500 2526.528 797 L 2515.441 785.500 2503.911 773 L 2492.382 760.500 2479.941 747.123 L 2467.500 733.745 2452.552 717.123 L 2437.604 700.500 2424.802 687.426 L 2412 674.352 2412 673.323 L 2412 672.294 2425.808 657.897 L 2439.615 643.500 2445.058 637.415 L 2450.500 631.330 2464.634 615.415 L 2478.768 599.500 2485.134 591.894 L 2491.500 584.287 2503.478 570.394 L 2515.457 556.500 2522.502 549 L 2529.548 541.500 2538.490 531 L 2547.432 520.500 2555.966 510.881 L 2564.500 501.261 2576.389 487.690 L 2588.278 474.119 2590.639 472.066 L 2593 470.013 2593 469.143 L 2593 468.272 2588.625 467.672 L 2584.250 467.073 2535.375 467.153 L 2486.500 467.233 2482.244 467.935 M 2656.476 468.419 L 2656.144 469.500 2656.322 675 L 2656.500 880.500 2807.500 880.500 L 2958.500 880.500 2959.374 844.174 L 2960.248 807.848 2959.160 806.760 L 2958.072 805.672 2853.701 805.199 L 2749.330 804.726 2749.415 757.369 L 2749.500 710.012 2842 709.756 L 2934.500 709.500 2935.069 672 L 2935.638 634.500 2934.697 633.250 L 2933.755 632 2841.378 632 L 2749 632 2749 589.005 L 2749 546.010 2850.250 545.755 L 2951.500 545.500 2951.762 506.750 L 2952.023 468 2949.262 467.868 L 2946.500 467.736 2801.654 467.537 L 2656.808 467.337 2656.476 468.419 M 3033.006 467.833 L 3032 468.167 3032 674.024 L 3032 879.882 3032.833 880.397 L 3033.665 880.911 3076.865 880.294 L 3120.064 879.678 3119.743 736.589 L 3119.421 593.500 3118.636 591 L 3117.852 588.500 3119.302 590.272 L 3120.752 592.043 3130.056 620.272 L 3139.359 648.500 3147.264 670 L 3155.169 691.500 3158.010 699.500 L 3160.850 707.500 3168.344 728.500 L 3175.838 749.500 3182.776 768.500 L 3189.714 787.500 3200.011 816 L 3210.308 844.500 3213.549 854 L 3216.791 863.500 3219.390 869.362 L 3221.989 875.225 3225.745 874.469 L 3229.500 873.714 3247.500 874.061 L 3265.500 874.409 3276.500 874.454 L 3287.500 874.500 3288.794 875.336 L 3290.088 876.172 3292.294 874.725 L 3294.500 873.277 3299.651 858.388 L 3304.803 843.500 3311.496 824.500 L 3318.189 805.500 3324.187 788.500 L 3330.185 771.500 3337.533 750.500 L 3344.881 729.500 3350.054 715 L 3355.228 700.500 3362.010 681 L 3368.793 661.500 3376.788 639 L 3384.783 616.500 3389.012 602.500 L 3393.240 588.500 3393.644 587.107 L 3394.047 585.714 3394.577 586.243 L 3395.107 586.773 3395.129 732.137 L 3395.151 877.500 3395.563 879 L 3395.975 880.500 3438.238 880.155 L 3480.500 879.810 3481.282 878.655 L 3482.064 877.500 3481.782 672.500 L 3481.500 467.500 3418.379 467.243 L 3355.257 466.985 3354.275 468.243 L 3353.292 469.500 3351.587 476.500 L 3349.882 483.500 3342.031 506.500 L 3334.180 529.500 3331.158 538 L 3328.136 546.500 3310.926 595.500 L 3293.717 644.500 3278.174 691 L 3262.631 737.500 3260.095 744.337 L 3257.559 751.174 3255.915 749.143 L 3254.270 747.112 3249.526 732.306 L 3244.782 717.500 3229.337 673.500 L 3213.891 629.500 3211.035 621.500 L 3208.179 613.500 3200.460 592 L 3192.740 570.500 3185.358 548.709 L 3177.976 526.918 3169.582 503.709 L 3161.188 480.500 3159.377 474.643 L 3157.567 468.786 3155.034 467.800 L 3152.500 466.815 3093.256 467.157 L 3034.012 467.500 3033.006 467.833 M 3555.954 468.450 L 3555 469.400 3555 672.635 L 3555 875.870 3555.880 878.185 L 3556.760 880.500 3600.783 880.369 L 3644.806 880.238 3645.923 879.548 L 3647.040 878.857 3646.979 674.016 L 3646.917 469.176 3645.458 467.965 L 3643.999 466.754 3600.454 467.127 L 3556.909 467.500 3555.954 468.450 M 1921.654 546 L 1921.500 546.500 1921.765 608.843 L 1922.030 671.186 1967.765 670.709 L 2013.500 670.232 2020.500 668.673 L 2027.500 667.115 2032.500 665.282 L 2037.500 663.449 2043.781 660.068 L 2050.063 656.688 2056.086 650.249 L 2062.109 643.810 2064.485 638.439 L 2066.860 633.067 2069.110 625.284 L 2071.359 617.500 2071.397 605.500 L 2071.435 593.500 2069.628 587.500 L 2067.821 581.500 2064.291 574.758 L 2060.761 568.017 2054.024 561.662 L 2047.287 555.306 2039.529 552.076 L 2031.771 548.847 2024.136 547.469 L 2016.500 546.092 1969.154 545.796 L 1921.809 545.500 1921.654 546 M 1558.637 593.279 L 1547.857 625.500 1545.964 630.500 L 1544.071 635.500 1540.134 646.500 L 1536.197 657.500 1527.041 682 L 1517.884 706.500 1517.012 709.250 L 1516.140 712 1569.570 712 L 1623 712 1623 711.291 L 1623 710.582 1619.509 702.454 L 1616.017 694.325 1608.906 674.913 L 1601.794 655.500 1597.958 644.500 L 1594.122 633.500 1590.424 623.500 L 1586.727 613.500 1578.864 590.531 L 1571 567.562 1570.985 565.531 L 1570.969 563.500 1570.194 562.279 L 1569.418 561.059 1558.637 593.279" stroke="none" fill="currentColor" fill-rule="evenodd"/></svg>